#tb 0: 1/25
0,          0,          0,        1, 13368960, 0x830b3a1d
0,          1,          1,        1, 13368960, 0x120ca009
0,          2,          2,        1, 13368960, 0xc94e0d86
0,          3,          3,        1, 13368960, 0x3e97d237
0,          4,          4,        1, 13368960, 0x1caaa873
0,          5,          5,        1, 13368960, 0xc6af86c6
0,          6,          6,        1, 13368960, 0x277ee61a
0,          7,          7,        1, 13368960, 0x7832ef4e
0,          8,          8,        1, 13368960, 0x328142e9
0,          9,          9,        1, 13368960, 0xbe22f686
